<?xml version="1.0" encoding="UTF-8"?>
<!DOCTYPE svg PUBLIC "-//W3C//DTD SVG 1.1//EN" "http://www.w3.org/Graphics/SVG/1.1/DTD/svg11.dtd">
<!-- Creator: CorelDRAW -->
<svg xmlns="http://www.w3.org/2000/svg" xml:space="preserve" width="7.83333in" height="7.83333in" style="shape-rendering:geometricPrecision; text-rendering:geometricPrecision; image-rendering:optimizeQuality; fill-rule:evenodd; clip-rule:evenodd"
viewBox="0 0 7.83333 7.83333"
 xmlns:xlink="http://www.w3.org/1999/xlink">
 <defs>
  <style type="text/css">
   <![CDATA[
    .fil0 {fill:#7AC6EB}
    .fil3 {fill:#B4B894}
    .fil2 {fill:#F0F4C3}
    .fil1 {fill:#413B32;fill-rule:nonzero}
   ]]>
  </style>
 </defs>
 <g id="Layer_x0020_1">
  <metadata id="CorelCorpID_0Corel-Layer"/>
  <circle class="fil0" cx="3.91667" cy="3.91667" r="3.91667"/>
  <g id="_319076880">
   <g>
    <g>
     <path id="_319078440" class="fil1" d="M3.91667 1.35424c0.70672,0 1.34674,0.286933 1.81019,0.750835 0.463272,0.46372 0.749811,1.10423 0.749811,1.81159 0,0.707362 -0.286539,1.34787 -0.749811,1.81159 -0.463449,0.463902 -1.10347,0.750835 -1.81019,0.750835 -0.70672,0 -1.34674,-0.286933 -1.81019,-0.750835 -0.463272,-0.46372 -0.749811,-1.10423 -0.749811,-1.81159 0,-0.707362 0.286539,-1.34787 0.749811,-1.81159 0.463445,-0.463902 1.10346,-0.750835 1.81019,-0.750835zm1.69706 0.863339c-0.434134,-0.434555 -1.03413,-0.703339 -1.69706,-0.703339 -0.662937,0 -1.26293,0.268783 -1.69706,0.703339 -0.434307,0.434728 -0.702937,1.03544 -0.702937,1.69909 0,0.663642 0.26863,1.26436 0.702937,1.69909 0.43413,0.434555 1.03412,0.703339 1.69706,0.703339 0.662937,0 1.26293,-0.268783 1.69706,-0.703339 0.434307,-0.434728 0.702937,-1.03544 0.702937,-1.69909 0,-0.663642 -0.26863,-1.26436 -0.702937,-1.69909z"/>
     <path id="_319078104" class="fil1" d="M5.89544 5.54192c-0.238575,0.290657 -0.539701,0.52785 -0.88276,0.690839 -0.332433,0.157953 -0.704035,0.246331 -1.09601,0.246331 -0.39198,0 -0.763583,-0.088378 -1.09602,-0.246331 -0.345138,-0.163976 -0.64785,-0.403055 -0.887106,-0.696122l-0.000192913 0.00015748c-0.027937,-0.0342244 -0.0228386,-0.084622 0.0113858,-0.112559 0.00851181,-0.00694882 0.0180236,-0.0118504 0.0279409,-0.0147717 0.30461,-0.12389 0.621925,-0.219449 0.948929,-0.283547 0.322642,-0.063248 0.655276,-0.0963425 0.995055,-0.0963425 0.33978,0 0.672417,0.0330945 0.995063,0.0963425 0.32963,0.0646142 0.649425,0.161193 0.95628,0.286539l-0.03 0.073752 0.030252 -0.0740591c0.0409016,0.0167047 0.0605118,0.0634094 0.0438071,0.104311 -0.00399213,0.00977165 -0.00969685,0.0183268 -0.016626,0.0254606zm-0.950886 0.546461c0.290276,-0.137913 0.548465,-0.332406 0.760362,-0.569193 -0.264378,-0.101189 -0.53965,-0.180697 -0.823811,-0.236398 -0.312173,-0.0611969 -0.634559,-0.0932165 -0.964441,-0.0932165 -0.329878,0 -0.652264,0.0320197 -0.964433,0.0932165 -0.284165,0.0557008 -0.559437,0.135209 -0.823815,0.236398 0.211898,0.236787 0.470087,0.43128 0.760362,0.569193 0.31135,0.147933 0.659827,0.230709 1.02789,0.230709 0.368059,0 0.716535,-0.0827756 1.02789,-0.230709z"/>
     <path id="_319078368" class="fil1" d="M5.70492 2.31414c-0.211898,-0.236787 -0.470087,-0.43128 -0.760362,-0.569193 -0.31135,-0.147933 -0.659827,-0.230709 -1.02789,-0.230709 -0.368063,0 -0.716539,0.0827756 -1.02789,0.230709 -0.290276,0.137913 -0.548465,0.332406 -0.760362,0.569193 0.264378,0.101189 0.53965,0.180697 0.823815,0.236398 0.312169,0.0611969 0.634555,0.0932165 0.964433,0.0932165 0.329882,0 0.652268,-0.0320197 0.964441,-0.0932165 0.284161,-0.0557008 0.559433,-0.135209 0.823811,-0.236398zm-0.692236 -0.713571c0.343059,0.162988 0.644185,0.400181 0.88276,0.690839 0.00692913,0.00713386 0.0126339,0.015689 0.016626,0.0254606 0.0167047,0.0409016 -0.00290551,0.0876063 -0.0438071,0.104311l-0.030252 -0.0740591 0.03 0.073752c-0.306854,0.125346 -0.62665,0.221925 -0.95628,0.286539 -0.322646,0.063248 -0.655283,0.0963425 -0.995063,0.0963425 -0.33978,0 -0.672413,-0.0330945 -0.995055,-0.0963425 -0.327004,-0.0640984 -0.644319,-0.159657 -0.948929,-0.283547 -0.00991732,-0.00292126 -0.0194291,-0.00782283 -0.0279409,-0.0147717 -0.0342244,-0.027937 -0.0393228,-0.0783346 -0.0113858,-0.112559l0.000192913 0.00015748c0.239256,-0.293067 0.541969,-0.532146 0.887106,-0.696122 0.332433,-0.157953 0.704035,-0.246331 1.09602,-0.246331 0.391976,0 0.763579,0.088378 1.09601,0.246331z"/>
     <path id="_319077888" class="fil1" d="M3.91667 1.35424c0.392909,0 0.74424,0.294217 0.994638,0.769898 0.242264,0.460228 0.392114,1.09411 0.392114,1.79253 0,0.698421 -0.14985,1.3323 -0.392114,1.79253 -0.250398,0.475681 -0.601728,0.769898 -0.994638,0.769898 -0.392902,0 -0.74424,-0.294217 -0.994638,-0.769898 -0.24226,-0.460228 -0.39211,-1.0941 -0.39211,-1.79253 0,-0.698425 0.14985,-1.3323 0.39211,-1.79253 0.250398,-0.475681 0.601736,-0.769898 0.994638,-0.769898zm0.853386 0.844276c-0.222551,-0.42278 -0.524598,-0.684276 -0.853386,-0.684276 -0.328783,0 -0.630835,0.261496 -0.853386,0.684276 -0.230677,0.43822 -0.373362,1.04557 -0.373362,1.71815 0,0.672583 0.142685,1.27993 0.373362,1.71815 0.222551,0.42278 0.524602,0.684276 0.853386,0.684276 0.328787,0 0.630835,-0.261496 0.853386,-0.684276 0.230681,-0.438224 0.373366,-1.04557 0.373366,-1.71815 0,-0.672575 -0.142685,-1.27993 -0.373366,-1.71815z"/>
     <path id="_319077984" class="fil1" d="M1.43667 3.83667c-0.0441811,0 -0.08,0.0358189 -0.08,0.08 0,0.0441811 0.0358189,0.08 0.08,0.08l4.96 0c0.0441811,0 0.08,-0.0358189 0.08,-0.08 0,-0.0441811 -0.0358189,-0.08 -0.08,-0.08l-4.96 0z"/>
    </g>
    <path id="_319078200" class="fil2" d="M2.7558 2.50793c0.0487756,-0.138 0.1045,-0.266531 0.166224,-0.383791 0.117846,-0.22387 0.258047,-0.407547 0.414417,-0.53928 -0.138709,0.0344488 -0.272646,0.0809606 -0.400634,0.138366 -0.0157677,0.00707874 -0.0314449,0.0143189 -0.0470315,0.0217244 -0.290276,0.137913 -0.548465,0.332406 -0.760362,0.569193 0.203008,0.0777008 0.412437,0.142614 0.627386,0.193787z"/>
    <path id="_319078392" class="fil2" d="M2.53057 3.83667c0.00701575,-0.42663 0.069937,-0.827236 0.175382,-1.1764 -0.234256,-0.0565512 -0.463047,-0.129327 -0.68522,-0.217134 -0.300701,0.387224 -0.485634,0.869098 -0.502764,1.39353l1.0126 0z"/>
    <path id="_319078416" class="fil2" d="M2.70596 5.17306c-0.105445,-0.349161 -0.168366,-0.749768 -0.175382,-1.1764l-1.0126 0c0.0171299,0.524433 0.202063,1.00631 0.502764,1.39353 0.222173,-0.0878071 0.450969,-0.160583 0.68522,-0.217134z"/>
    <path id="_319077480" class="fil2" d="M2.92203 5.70919c-0.0617244,-0.11726 -0.117449,-0.245791 -0.166224,-0.383791 -0.214949,0.0511732 -0.424378,0.116087 -0.627386,0.193787 0.211898,0.236787 0.470087,0.43128 0.760362,0.569193 0.0155827,0.00740945 0.0312638,0.0146496 0.0470315,0.0217244 0.127988,0.0574055 0.261925,0.103921 0.400634,0.138366 -0.15637,-0.131732 -0.296571,-0.315409 -0.414417,-0.53928z"/>
    <path id="_319077432" class="fil2" d="M3.91667 6.31909c0.328787,0 0.630835,-0.261496 0.853386,-0.684276 0.0554882,-0.105409 0.105886,-0.220606 0.150429,-0.344142 -0.0131063,-0.00267717 -0.0262283,-0.00530709 -0.039374,-0.00788189 -0.312173,-0.0611969 -0.634559,-0.0932165 -0.964441,-0.0932165 -0.329878,0 -0.652264,0.0320197 -0.964433,0.0932165 -0.0131457,0.0025748 -0.0262717,0.00520472 -0.039378,0.00788189 0.0445433,0.123535 0.094937,0.238732 0.150425,0.344142 0.222551,0.42278 0.524602,0.684276 0.853386,0.684276z"/>
    <path id="_319077504" class="fil2" d="M3.91667 5.02957c0.33978,0 0.672417,0.0330945 0.995063,0.0963425 0.019874,0.00389764 0.0397165,0.00790945 0.0595197,0.0120354 0.102898,-0.336744 0.164472,-0.725551 0.171496,-1.14129l-2.45215 0c0.00702362,0.41574 0.0685984,0.804547 0.171496,1.14129 0.0198071,-0.00412598 0.0396457,-0.0081378 0.0595236,-0.0120354 0.322642,-0.063248 0.655276,-0.0963425 0.995055,-0.0963425z"/>
    <path id="_319077240" class="fil2" d="M2.69059 3.83667l2.45215 0c-0.00702362,-0.415736 -0.0685984,-0.804543 -0.171496,-1.14129 -0.0198031,0.00412598 -0.0396457,0.0081378 -0.0595197,0.0120354 -0.322646,0.063248 -0.655283,0.0963425 -0.995063,0.0963425 -0.33978,0 -0.672413,-0.0330945 -0.995055,-0.0963425 -0.019878,-0.00389764 -0.0397205,-0.00790945 -0.0595236,-0.0120354 -0.102898,0.33674 -0.164472,0.725547 -0.171496,1.14129z"/>
    <path id="_319077168" class="fil2" d="M3.91667 2.64376c0.329882,0 0.652268,-0.0320197 0.964441,-0.0932165 0.0131417,-0.0025748 0.0262677,-0.00520472 0.039374,-0.00788189 -0.0445433,-0.123535 -0.0949409,-0.238732 -0.150429,-0.344142 -0.222551,-0.42278 -0.524598,-0.684276 -0.853386,-0.684276 -0.328783,0 -0.630835,0.261496 -0.853386,0.684276 -0.0554882,0.105409 -0.105882,0.220606 -0.150425,0.344142 0.0131063,0.00267717 0.0262323,0.00530709 0.039378,0.00788189 0.312169,0.0611969 0.634555,0.0932165 0.964433,0.0932165z"/>
    <path id="_319077192" class="fil2" d="M5.07753 2.50793c0.214945,-0.0511693 0.424378,-0.116087 0.627386,-0.193787 -0.211898,-0.236787 -0.470087,-0.43128 -0.760362,-0.569193 -0.0133228,-0.00633858 -0.0267205,-0.0125472 -0.0401811,-0.0186378 -0.130055,-0.0588268 -0.266299,-0.10639 -0.407484,-0.141449 0.15637,0.131728 0.296571,0.315406 0.414413,0.539276 0.0617244,0.11726 0.117453,0.245791 0.166228,0.383791z"/>
    <path id="_319077744" class="fil2" d="M6.31536 3.83667c-0.0171299,-0.524433 -0.202059,-1.0063 -0.50276,-1.39353 -0.222177,0.0878071 -0.450972,0.160583 -0.685228,0.21713 0.105449,0.349161 0.16837,0.749768 0.175386,1.1764l1.0126 0z"/>
    <path id="_319077720" class="fil2" d="M5.8126 5.39019c0.300701,-0.387224 0.48563,-0.869094 0.50276,-1.39353l-1.0126 0c-0.00701575,0.42663 -0.069937,0.827236 -0.175386,1.1764 0.234256,0.0565472 0.463051,0.129323 0.685228,0.21713z"/>
    <path id="_319076568" class="fil2" d="M4.94456 6.08838c0.290276,-0.137913 0.548465,-0.332406 0.760362,-0.569193 -0.203008,-0.0777008 -0.412441,-0.142618 -0.627386,-0.193787 -0.0487756,0.138 -0.104504,0.266531 -0.166228,0.383791 -0.117846,0.22387 -0.258047,0.407547 -0.414413,0.539276 0.141185,-0.0350591 0.277429,-0.082626 0.407484,-0.141449 0.0134606,-0.00609449 0.0268543,-0.0123071 0.0401811,-0.0186378z"/>
   </g>
   <path id="_319076496" class="fil3" d="M5.36223 2.4312c0.116091,-0.035 0.23037,-0.0740748 0.342685,-0.117063 -0.211898,-0.236787 -0.470087,-0.43128 -0.760362,-0.569193 -0.0133228,-0.00633858 -0.0267205,-0.0125472 -0.0401811,-0.0186378 -0.130055,-0.0588228 -0.266295,-0.10639 -0.407484,-0.141449 0.0653425,0.0550472 0.127866,0.119165 0.187106,0.191496 0.145134,0.0958543 0.279961,0.206106 0.402453,0.328717 0.0598425,0.0598976 0.116732,0.122748 0.170441,0.188311 0.00183465,0.00202362 0.0035748,0.00415354 0.0052126,0.00638189 0.0347441,0.0426929 0.0681417,0.0865276 0.10013,0.131437z"/>
   <path id="_319076424" class="fil3" d="M6.31536 3.83667c-0.0171299,-0.524433 -0.202059,-1.0063 -0.50276,-1.39353 -0.11763,0.0464882 -0.237114,0.0887638 -0.358283,0.126646 0.229039,0.370173 0.366496,0.803031 0.380717,1.26688l0.480327 0z"/>
   <path id="_319076352" class="fil3" d="M5.8126 5.39019c0.300701,-0.387224 0.48563,-0.869094 0.50276,-1.39353l-0.480327 0c-0.0142205,0.46385 -0.151677,0.896709 -0.380717,1.26688 0.121169,0.0378858 0.240654,0.0801614 0.358283,0.12665z"/>
   <path id="_319077048" class="fil3" d="M4.94456 6.08838c0.290276,-0.137913 0.548465,-0.332406 0.760362,-0.569193 -0.112315,-0.0429882 -0.226594,-0.082063 -0.342685,-0.117063 -0.0319882,0.0449094 -0.0653858,0.0887441 -0.10013,0.131437 -0.0016378,0.00222835 -0.00337795,0.00435827 -0.0052126,0.00638189 -0.0537087,0.065563 -0.110598,0.128413 -0.170441,0.188311 -0.122492,0.12261 -0.257319,0.232862 -0.402453,0.328717 -0.0592441,0.0723307 -0.121764,0.136449 -0.187106,0.191496 0.141185,-0.0350591 0.277429,-0.082622 0.407484,-0.141449 0.0134606,-0.00609449 0.0268543,-0.0123071 0.0401811,-0.0186378z"/>
  </g>
 </g>
</svg>
