<?xml version="1.0" encoding="utf-8"?>
<!-- Generator: Adobe Illustrator 24.0.2, SVG Export Plug-In . SVG Version: 6.00 Build 0)  -->
<svg version="1.1" id="Layer_1" xmlns="http://www.w3.org/2000/svg" xmlns:xlink="http://www.w3.org/1999/xlink" x="0px" y="0px"
	 viewBox="0 0 512 512" enable-background="new 0 0 512 512" xml:space="preserve">
<g>
	<g>
		<path fill="#E6AE7E" d="M108.3,196.6c30.6,13.9,71.2,22.3,115.8,22.3c44.6,0,85.2-8.4,115.8-22.3c-30.6-13.9-71.2-22.3-115.8-22.3
			C179.5,174.2,138.9,182.7,108.3,196.6z"/>
		<g>
			<path fill="#AEBFCE" d="M246.4,45.2c-0.2,3.5-2.4,6.3-5,6.2l-25.1-1.3c-2.6-0.2-4.6-3.1-4.4-6.7l1-20.2c0.2-3.5,2.5-6.3,5.1-6.2
				l25,1.3c2.6,0.1,4.6,3.1,4.4,6.7L246.4,45.2z"/>
			<path fill="#AEBFCE" d="M236.4,241.8c0.2-3.6-1.8-6.6-4.4-6.7l-25.1-1.2c-2.6-0.2-4.9,2.6-5.1,6.2l-1,20.2
				c-0.2,3.5,1.8,6.5,4.4,6.7l25.1,1.2c2.6,0.2,4.9-2.6,5-6.2L236.4,241.8z"/>
			<path fill="#AEBFCE" d="M194.7,47.1c1.6,3.2,1.1,6.7-1.3,7.9l-22.3,11.4c-2.3,1.2-5.5-0.4-7.1-3.5l-9.2-18
				c-1.6-3.2-1-6.7,1.3-7.9l22.3-11.4c2.3-1.2,5.6,0.4,7.1,3.5L194.7,47.1z"/>
			<path fill="#AEBFCE" d="M284.3,222.4c-1.6-3.2-4.8-4.8-7.1-3.6l-22.3,11.4c-2.4,1.2-2.9,4.7-1.3,7.9l9.2,18
				c1.6,3.2,4.8,4.8,7.2,3.6l22.3-11.4c2.3-1.2,2.9-4.7,1.3-7.9L284.3,222.4z"/>
			<path fill="#AEBFCE" d="M150.9,74.6c3,1.9,4.3,5.3,2.9,7.5l-13.6,21.1c-1.5,2.2-5,2.4-8,0.5l-16.9-11c-3-1.9-4.2-5.3-2.8-7.5
				L126,64.1c1.4-2.2,5-2.4,8-0.5L150.9,74.6z"/>
			<path fill="#AEBFCE" d="M316.1,181.5c-3-1.9-6.6-1.7-8,0.5l-13.6,21.1c-1.4,2.2-0.2,5.5,2.8,7.5l17,11c3,1.9,6.6,1.7,8-0.5
				l13.6-21c1.4-2.2,0.2-5.5-2.8-7.5L316.1,181.5z"/>
			<path fill="#AEBFCE" d="M126.7,120.4c3.6,0.2,6.3,2.4,6.2,5.1l-1.3,25c-0.1,2.6-3.1,4.6-6.6,4.4l-20.2-1
				c-3.6-0.2-6.3-2.5-6.2-5.1l1.3-25c0.1-2.6,3.1-4.6,6.7-4.4L126.7,120.4z"/>
			<path fill="#AEBFCE" d="M323.3,130.4c-3.6-0.2-6.6,1.8-6.7,4.4l-1.3,25c-0.1,2.6,2.6,4.9,6.2,5.1l20.2,1c3.6,0.2,6.5-1.8,6.7-4.4
				l1.3-25c0.1-2.6-2.7-4.9-6.2-5.1L323.3,130.4z"/>
			<path fill="#AEBFCE" d="M128.6,172c3.2-1.6,6.7-1.1,7.9,1.3l11.4,22.3c1.2,2.3-0.4,5.5-3.6,7.1l-18,9.2c-3.1,1.6-6.7,1-7.9-1.3
				l-11.4-22.3c-1.2-2.3,0.4-5.5,3.6-7.2L128.6,172z"/>
			<path fill="#AEBFCE" d="M303.9,82.4c-3.1,1.6-4.7,4.8-3.5,7.1l11.4,22.3c1.2,2.3,4.7,2.9,7.9,1.3l18-9.2c3.2-1.6,4.7-4.8,3.5-7.2
				l-11.4-22.3c-1.2-2.3-4.7-2.9-7.9-1.3L303.9,82.4z"/>
			<path fill="#AEBFCE" d="M156.1,215.8c2-3,5.3-4.2,7.5-2.8l21.1,13.6c2.2,1.4,2.4,5,0.5,8l-11,17c-1.9,3-5.3,4.2-7.5,2.8l-21-13.6
				c-2.2-1.4-2.4-5-0.5-8L156.1,215.8z"/>
			<path fill="#AEBFCE" d="M263.1,50.6c-1.9,3-1.7,6.5,0.5,8l21.1,13.6c2.2,1.4,5.5,0.2,7.5-2.8l11-17c1.9-3,1.7-6.5-0.5-8
				l-21.1-13.6c-2.2-1.4-5.5-0.2-7.5,2.8L263.1,50.6z"/>
			<path fill="#768296" d="M229.5,37c-58.3-3-108,41.9-110.9,100.2c-3,58.3,41.9,108,100.2,111c58.3,3,108-41.9,110.9-100.2
				C332.7,89.7,287.8,40,229.5,37z M309.6,146.9c-2.4,47.2-42.6,83.5-89.8,81.2c-47.2-2.4-83.6-42.6-81.1-89.9
				c2.4-47.2,42.6-83.5,89.8-81.1C275.7,59.5,312,99.7,309.6,146.9z"/>
		</g>
		<g>
			<path fill="#FFA229" d="M209.2,89.6c-0.1,1.2-0.8,2.2-1.8,2.1l-8.7-0.4c-0.9,0-1.6-1.1-1.5-2.3l0.3-7c0.1-1.2,0.9-2.2,1.8-2.1
				l8.7,0.4c0.9,0,1.6,1.1,1.5,2.3L209.2,89.6z"/>
			<path fill="#FFA229" d="M205.7,157.8c0.1-1.2-0.6-2.3-1.5-2.3l-8.7-0.4c-0.9-0.1-1.7,0.9-1.8,2.1l-0.4,7
				c-0.1,1.2,0.6,2.3,1.5,2.3l8.7,0.4c0.9,0.1,1.7-0.9,1.7-2.1L205.7,157.8z"/>
			<path fill="#FFA229" d="M191.3,90.3c0.6,1.1,0.4,2.3-0.4,2.7l-7.8,4c-0.8,0.4-1.9-0.1-2.5-1.2l-3.2-6.2c-0.6-1.1-0.4-2.3,0.4-2.7
				l7.8-4c0.8-0.4,1.9,0.1,2.5,1.2L191.3,90.3z"/>
			<path fill="#FFA229" d="M222.3,151c-0.6-1.1-1.7-1.7-2.5-1.3l-7.7,4c-0.8,0.4-1,1.6-0.5,2.7l3.2,6.2c0.6,1.1,1.7,1.6,2.5,1.2
				l7.7-4c0.8-0.4,1-1.6,0.5-2.7L222.3,151z"/>
			<path fill="#FFA229" d="M176.1,99.8c1.1,0.7,1.5,1.8,1,2.6l-4.7,7.3c-0.5,0.8-1.7,0.8-2.8,0.2l-5.9-3.8c-1-0.7-1.5-1.8-1-2.6
				l4.7-7.3c0.5-0.8,1.7-0.8,2.8-0.2L176.1,99.8z"/>
			<path fill="#FFA229" d="M233.4,136.9c-1-0.7-2.3-0.6-2.8,0.2l-4.7,7.3c-0.5,0.8-0.1,1.9,1,2.6l5.9,3.8c1,0.7,2.3,0.6,2.8-0.2
				l4.7-7.3c0.5-0.8,0.1-1.9-1-2.6L233.4,136.9z"/>
			<path fill="#FFA229" d="M167.7,115.7c1.2,0.1,2.2,0.8,2.1,1.8l-0.5,8.7c0,0.9-1.1,1.6-2.3,1.5l-7-0.4c-1.2-0.1-2.2-0.8-2.1-1.8
				l0.4-8.7c0-0.9,1.1-1.6,2.3-1.5L167.7,115.7z"/>
			<path fill="#FFA229" d="M235.8,119.1c-1.2-0.1-2.3,0.6-2.3,1.5l-0.4,8.7c0,0.9,0.9,1.7,2.1,1.8l7,0.4c1.2,0.1,2.3-0.6,2.3-1.5
				l0.5-8.7c0-0.9-0.9-1.7-2.1-1.8L235.8,119.1z"/>
			<path fill="#FFA229" d="M168.4,133.6c1.1-0.5,2.3-0.4,2.7,0.4l3.9,7.7c0.4,0.8-0.1,1.9-1.2,2.5l-6.2,3.2
				c-1.1,0.6-2.3,0.4-2.7-0.5l-3.9-7.7c-0.4-0.8,0.1-1.9,1.2-2.5L168.4,133.6z"/>
			<path fill="#FFA229" d="M229.1,102.5c-1.1,0.6-1.6,1.7-1.2,2.5l4,7.7c0.4,0.8,1.6,1,2.7,0.4l6.2-3.2c1.1-0.6,1.6-1.7,1.2-2.5
				l-4-7.7c-0.4-0.8-1.6-1-2.7-0.5L229.1,102.5z"/>
			<path fill="#FFA229" d="M177.9,148.8c0.7-1,1.8-1.5,2.6-1l7.3,4.7c0.7,0.5,0.8,1.7,0.2,2.8l-3.8,5.9c-0.7,1-1.8,1.5-2.6,1
				l-7.3-4.7c-0.8-0.5-0.8-1.7-0.2-2.8L177.9,148.8z"/>
			<path fill="#FFA229" d="M215,91.5c-0.7,1-0.6,2.3,0.2,2.8l7.3,4.7c0.7,0.5,1.9,0.1,2.6-1l3.8-5.9c0.7-1,0.6-2.3-0.2-2.8l-7.3-4.7
				c-0.7-0.5-1.9-0.1-2.6,1L215,91.5z"/>
			<path fill="#FFA229" d="M203.3,86.8c-20.2-1-37.4,14.5-38.4,34.7c-1,20.2,14.5,37.4,34.7,38.4c20.2,1,37.4-14.5,38.4-34.7
				C239.1,105,223.6,87.8,203.3,86.8z M200.3,147.5c-13.3-0.7-23.6-12-22.9-25.3c0.7-13.3,12-23.5,25.3-22.9
				c13.3,0.7,23.6,12,22.9,25.3C224.9,137.9,213.6,148.2,200.3,147.5z"/>
		</g>
		<g>
			<path fill="#1C4670" d="M262.7,147.8c0,0.9-0.6,1.7-1.2,1.7l-6.5,0c-0.7,0-1.2-0.8-1.2-1.7l0-5.2c0-0.9,0.6-1.7,1.2-1.6l6.4,0.1
				c0.7,0,1.2,0.7,1.2,1.7L262.7,147.8z"/>
			<path fill="#1C4670" d="M262.3,198.5c0-0.9-0.5-1.7-1.2-1.7l-6.5-0.1c-0.7,0-1.2,0.7-1.2,1.6l0,5.2c0,0.9,0.5,1.7,1.2,1.7l6.5,0
				c0.7,0,1.2-0.7,1.2-1.6L262.3,198.5z"/>
			<path fill="#1C4670" d="M249.4,148.9c0.5,0.8,0.4,1.7-0.2,2l-5.6,3.2c-0.6,0.3-1.4,0-1.9-0.8l-2.6-4.5c-0.5-0.8-0.3-1.7,0.2-2
				l5.6-3.2c0.6-0.3,1.4,0.1,1.9,0.8L249.4,148.9z"/>
			<path fill="#1C4670" d="M274.4,193c-0.4-0.8-1.3-1.2-1.9-0.8l-5.6,3.2c-0.6,0.4-0.7,1.2-0.3,2.1l2.6,4.5c0.5,0.8,1.3,1.2,1.9,0.8
				l5.6-3.2c0.6-0.3,0.7-1.2,0.2-2L274.4,193z"/>
			<path fill="#1C4670" d="M238.5,156.4c0.8,0.5,1.2,1.3,0.8,1.9l-3.3,5.6c-0.4,0.6-1.3,0.7-2.1,0.2l-4.5-2.6
				c-0.8-0.5-1.2-1.3-0.8-1.9l3.3-5.6c0.3-0.6,1.3-0.7,2-0.2L238.5,156.4z"/>
			<path fill="#1C4670" d="M282.1,182.1c-0.8-0.5-1.7-0.4-2,0.2l-3.3,5.6c-0.4,0.6,0,1.4,0.8,1.9l4.5,2.6c0.8,0.5,1.7,0.4,2-0.2
				l3.3-5.6c0.3-0.6,0-1.4-0.8-1.9L282.1,182.1z"/>
			<path fill="#1C4670" d="M232.7,168.4c0.9,0,1.6,0.6,1.6,1.2l-0.1,6.5c0,0.7-0.8,1.2-1.7,1.2l-5.2,0c-0.9,0-1.6-0.6-1.6-1.2l0-6.4
				c0-0.7,0.8-1.2,1.7-1.2L232.7,168.4z"/>
			<path fill="#1C4670" d="M283.4,168.9c-0.9,0-1.7,0.5-1.7,1.2l-0.1,6.5c0,0.7,0.7,1.2,1.7,1.2l5.2,0c0.9,0,1.6-0.5,1.7-1.2l0-6.5
				c0-0.7-0.7-1.2-1.6-1.2L283.4,168.9z"/>
			<path fill="#1C4670" d="M233.8,181.7c0.8-0.4,1.7-0.3,2,0.3l3.2,5.6c0.3,0.6,0,1.4-0.8,1.9l-4.5,2.6c-0.8,0.5-1.7,0.4-2-0.3
				l-3.2-5.6c-0.3-0.6,0-1.4,0.8-1.9L233.8,181.7z"/>
			<path fill="#1C4670" d="M277.9,156.7c-0.8,0.5-1.2,1.3-0.8,1.9l3.2,5.6c0.3,0.6,1.2,0.7,2,0.3l4.5-2.6c0.8-0.4,1.2-1.3,0.8-1.9
				l-3.2-5.6c-0.3-0.6-1.2-0.7-2.1-0.2L277.9,156.7z"/>
			<path fill="#1C4670" d="M241.4,192.7c0.5-0.8,1.3-1.1,1.9-0.8l5.6,3.3c0.6,0.4,0.7,1.3,0.2,2l-2.6,4.5c-0.5,0.8-1.3,1.1-1.9,0.8
				l-5.6-3.3c-0.6-0.3-0.7-1.3-0.2-2L241.4,192.7z"/>
			<path fill="#1C4670" d="M267.1,149c-0.4,0.8-0.4,1.7,0.2,2.1l5.6,3.3c0.6,0.4,1.4,0,1.9-0.8l2.6-4.5c0.5-0.8,0.4-1.7-0.2-2
				l-5.6-3.3c-0.6-0.3-1.4,0-1.9,0.8L267.1,149z"/>
			<path fill="#1C4670" d="M258.3,145.9c-15-0.1-27.3,12-27.4,27c-0.1,15,12,27.3,27,27.4c15,0.1,27.3-12,27.4-27
				C285.4,158.3,273.3,146,258.3,145.9z M257.9,191c-9.9-0.1-17.9-8.2-17.8-18.1c0.1-9.9,8.2-17.8,18-17.8
				c9.9,0.1,17.9,8.2,17.8,18.1C275.9,183.1,267.8,191.1,257.9,191z"/>
		</g>
		<path fill="#F4C297" d="M340.1,290.2h-2.3c1-7.9,2-15.6,2.9-23c2-15.5,5.1-43.2-1-70.5c-30.5,13.8-71.1,22.2-115.6,22.2
			c-44.5,0-85-8.4-115.6-22.2c-6.1,27.3-3.1,55-1,70.5c1,7.4,2,15.1,2.9,23h-2.3c-20.2-14.9-21.9,24.1-13.5,37.4
			c7,11,7.1,12.3,11.3,24.4c3.1,9,8.3,10.1,12.6,9.2c0.5,5.3,1,9.9,1.3,13.6c1.9,20.5,51.1,61.6,62.3,74.4
			c10.4,12.1,27.9,7.4,33.5,7.1c5.7-0.3,8.4-0.4,8.4-0.4s2.7,0.1,8.3,0.4c5.6,0.2,23.1,4.9,33.5-7.1c11.2-12.9,60.5-53.9,62.3-74.4
			c0.3-3.7,0.8-8.3,1.3-13.6c4.3,1,9.5-0.2,12.6-9.2c4.2-12.1,4.4-13.4,11.3-24.4C362,314.3,360.3,275.2,340.1,290.2z"/>
		<g>
			<g>
				<path fill="#768296" d="M224,217c-17.2,0-33.7-5.9-47.2-17c-15.3-12.7-24.8-30.5-26.7-50.3l7-0.7c1.7,17.9,10.3,34.1,24.2,45.5
					c13.9,11.5,31.4,16.8,49.3,15.1l0.7,7C228.8,216.9,226.4,217,224,217z"/>
			</g>
			<g>
				<path fill="#768296" d="M291.2,136.2c-3.6-37-36.5-64.2-73.5-60.6l-0.7-7c40.8-3.9,77.2,26.1,81.2,66.9L291.2,136.2z"/>
			</g>
		</g>
	</g>
	<g>
		<g>
			<path fill="#1C4670" d="M224.9,352.4c0.7-5.5,3.4-2.6,4.2,1.4c0.8,4,8,30.1,28.1,9.9c20.4-19.8-5.7-27.3-9.6-28.2
				c-4-0.8-6.8-3.6-1.3-4.2c7-0.8,21-1.8,32.2,11.3c11.8,13.8,0.2,29.8-6.2,36.2c-6.5,6.4-22.6,17.9-36.3,5.9
				C222.9,373.5,224,359.4,224.9,352.4z"/>
			<path fill="#1C4670" d="M373.5,502.5c5.5-0.6,2.6-3.3-1.3-4.2c-4-0.8-30-8.3-9.6-28.2c20-20.2,27.3,5.9,28.1,9.9
				c0.8,4,3.5,6.9,4.2,1.4c0.8-6.9,2-21-11-32.3c-13.7-12-29.8-0.5-36.3,5.9c-6.4,6.4-18.1,22.4-6.2,36.2
				C352.4,504.3,366.5,503.2,373.5,502.5z"/>
			<polygon fill="#1C4670" points="358,449 349.7,457.2 269.9,376.7 278.2,368.4 			"/>
			
				<rect x="299.8" y="364.4" transform="matrix(0.7102 -0.704 0.704 0.7102 -207.845 337.2097)" fill="#1C4670" width="11.7" height="113.4"/>
			<path fill="#1C4670" d="M372.2,498.3c4,0.8,6.9,3.5,1.3,4.2c-7,0.8-21,1.8-32.2-11.3c-11.8-13.8-0.2-29.8,6.2-36.2l15,15.2
				C342.1,490,368.2,497.5,372.2,498.3z"/>
			<path fill="#1C4670" d="M235.9,384.8c-13-11.3-11.8-25.4-11-32.3c0.7-5.5,3.4-2.6,4.2,1.4c0.8,4,8,30.1,28.1,9.9l15,15.1
				C265.7,385.2,249.5,396.7,235.9,384.8z"/>
		</g>
		<g>
			<g>
				<polygon fill="#FCD751" points="378.8,348.6 372.4,342.2 298.4,415.5 304.7,422 				"/>
				<polygon fill="#FFA229" points="378.8,348.6 385.1,355.1 311.1,428.4 304.7,422 				"/>
				<path fill="#FCD751" d="M370.4,356.9c0,0-10.2-13.9-5.1-19.1c5.1-5.2,28.5-16.2,34.5-10.1L370.4,356.9z"/>
				<path fill="#FFA229" d="M370.4,356.9c0,0,13.8,10.3,19,5.3c5.3-5,16.5-28.3,10.4-34.5L370.4,356.9z"/>
			</g>
			<g>
				<path fill="#AEBFCE" d="M259,490.9c-6.6,6.5-17.2,6.4-23.7-0.1l0,0c-6.5-6.6-6.5-17.2,0.1-23.7l59-58.4
					c6.6-6.5,17.2-6.5,23.7,0.1l0,0c6.5,6.6,6.5,17.2-0.1,23.7L259,490.9z"/>
				<path fill="#768296" d="M242.7,487.8c-1.5,1.4-3.6,1.6-4.8,0.3l0,0c-1.2-1.2-1.1-3.4,0.4-4.8l65.6-65c1.4-1.4,3.6-1.6,4.8-0.3
					l0,0c1.2,1.2,1.1,3.4-0.4,4.8L242.7,487.8z"/>
				<path fill="#768296" d="M253,491.4c-1.4,1.4-3.6,1.6-4.8,0.3l0,0c-1.2-1.2-1.1-3.4,0.4-4.8l65.6-65c1.4-1.4,3.6-1.6,4.8-0.3l0,0
					c1.2,1.2,1.1,3.4-0.4,4.8L253,491.4z"/>
				<path fill="#768296" d="M234.8,473c-1.4,1.4-1.6,3.6-0.4,4.8l0,0c1.2,1.2,3.4,1.1,4.8-0.3l65.6-65c1.4-1.4,1.6-3.6,0.4-4.8l0,0
					c-1.2-1.2-3.4-1.1-4.8,0.4L234.8,473z"/>
				<path fill="#768296" d="M327.9,430.4c-3.3,3.2-8.5,3.2-11.8-0.1l-19.6-19.8c-3.2-3.3-3.2-8.5,0.1-11.8l0,0
					c3.3-3.2,8.5-3.2,11.7,0.1l19.6,19.8C331.2,421.9,331.1,427.2,327.9,430.4L327.9,430.4z"/>
				<path fill="#768296" d="M327,426.7c-2.5,2.5-6.8,2.3-9.6-0.6l-16.8-16.9c-2.8-2.8-3-7.1-0.5-9.5l0,0c2.5-2.5,6.8-2.2,9.5,0.6
					l16.8,16.9C329.2,420,329.5,424.2,327,426.7L327,426.7z"/>
			</g>
		</g>
	</g>
</g>
</svg>
