<?xml version="1.0" encoding="UTF-8" standalone="no"?> <svg xmlns="http://www.w3.org/2000/svg" viewBox="0 0 128 128"><defs><style>.cls-1{fill:#b3b3b3;}.cls-2{fill:#999;}.cls-3{fill:gray;}.cls-4{fill:#ccc;}.cls-5{fill:#e6e6e6;}.cls-6{fill:#f2f2f2;}.cls-7{fill:#333;}.cls-8{fill:#1f1f1f;}.cls-9{fill:#4d4d4d;}</style></defs><title>32 Compass</title><g id="_32_Compass" data-name="32 Compass"><path class="cls-1" d="M62,44.41V22.8a2,2,0,0,1,4,0V44.41A2,2,0,0,1,62,44.41Z"/><path class="cls-2" d="M63.52,20.87c2,.49,1.51,2,1.51,8.73H62c1.58.45,3,.59,3,2.05V44.41a2,2,0,0,1-1.51,1.93A2.15,2.15,0,0,0,66,44.09v-21A2.15,2.15,0,0,0,63.52,20.87Z"/><path class="cls-2" d="M85.92,81.85h-44a2,2,0,0,1,0-4h44A2,2,0,0,1,85.92,81.85Z"/><path class="cls-3" d="M87.06,78.21a2,2,0,0,1-1.64,3.14c-46.8,0-44.29.23-45.14-.36a2,2,0,0,0,1.64.86h44A2,2,0,0,0,87.06,78.21Z"/><path class="cls-4" d="M56.33,39.49,37.81,110.41a1.31,1.31,0,0,0,2.46.85L71.69,39.49Z"/><path class="cls-1" d="M71.86,39.49H56.5L53.85,49.63c1.82,6.47,7.22,5.84,5.77,9.72L40.27,111.27,63.84,57.43H64Z"/><path class="cls-5" d="M71.67,39.49l18.52,70.92a1.31,1.31,0,0,1-2.46.85L56.31,39.49Z"/><path class="cls-4" d="M87.73,111.27,68.41,59.43c-1.48-4,4.05-3.2,5.91-9.8L71.67,39.49H56.3l7.2,16.46h0Z"/><circle class="cls-5" cx="64" cy="44.41" r="11.47"/><path class="cls-6" d="M53.11,45a11.47,11.47,0,0,1,19.27-8.39A11.46,11.46,0,1,0,56.2,52.8,11.42,11.42,0,0,1,53.11,45Z"/><path class="cls-5" d="M71.67,35.9A11.46,11.46,0,0,1,55.49,52.08,11.46,11.46,0,1,0,71.67,35.9Z"/><circle class="cls-7" cx="64" cy="44.41" r="4.92"/><path class="cls-8" d="M67.65,41.13a4.91,4.91,0,1,0-6.93,6.93C56.61,43.49,63,37,67.65,41.13Z"/><rect class="cls-7" x="59.29" y="16" width="9.44" height="13.6" rx="2" ry="2"/><path class="cls-9" d="M59.84,27.6V18a2,2,0,0,1,2-2h-.55a2,2,0,0,0-2,2v9.6a2,2,0,0,0,2,2h.55A2,2,0,0,1,59.84,27.6Z"/><path class="cls-8" d="M66.73,16H65.18a2,2,0,0,1,2,2v9.6a2,2,0,0,1-2,2h1.55a2,2,0,0,0,2-2V18A2,2,0,0,0,66.73,16Z"/><path class="cls-7" d="M61.92,85.85v-12a2,2,0,0,1,4,0v12A2,2,0,0,1,61.92,85.85Z"/><path class="cls-9" d="M62.1,74a2,2,0,0,1,3.32-1.5,2,2,0,0,0-3.5,1.32c0,12.5-.32,12.61.68,13.5C61.8,86.44,62.1,86.26,62.1,74Z"/><path class="cls-8" d="M65,72.18c.54.81.33.74.33,13.1A2,2,0,0,1,62.25,87a2,2,0,0,0,3.67-1.1v-12A2,2,0,0,0,65,72.18Z"/></g></svg>