<?xml version="1.0" encoding="UTF-8" standalone="no"?> <svg xmlns="http://www.w3.org/2000/svg" width="110.58" height="66.19" viewBox="0 0 110.58 66.19"><defs><style>.cls-1{fill:#ffcb1e;}</style></defs><title>Asset 53</title><g id="Layer_2" data-name="Layer 2"><g id="Icons"><g id="Construction_machinery" data-name="Construction machinery"><g id="Bulldozer"><rect class="cls-1" x="15" y="1" width="29" height="4"/><path class="cls-1" d="M75.58,50H84V26.38a3.64,3.64,0,0,0-3.37-3.63L46,20,43.21,34.85A1.4,1.4,0,0,1,41.83,36H29.4A1.4,1.4,0,0,1,28,34.6V23.4A1.4,1.4,0,0,0,26.6,22H12.93A3.42,3.42,0,0,0,10,23.66L5.49,31.19A3.41,3.41,0,0,0,5,33V44.51A11,11,0,0,1,12,42H65A11,11,0,0,1,75.58,50Z"/><path class="cls-1" d="M93,50H34a3,3,0,0,0-.29,6H93a3,3,0,0,0,0-6Z"/><path d="M110.54,63.62l-.4-2a3.61,3.61,0,0,0-1-1.86l-5.81-5.81a1.9,1.9,0,0,1-.51-1l-2.6-13.85a1.85,1.85,0,0,1,.38-1.5l1.83-2.29a3.1,3.1,0,0,0-.56-4.41l-.82-.61a3.1,3.1,0,0,0-4,.29L92.61,35A5.42,5.42,0,0,0,91,38.86V49H85V26.38a4.65,4.65,0,0,0-4.29-4.63l-33.8-2.68L45.18,2.63A2.94,2.94,0,0,0,42.25,0H16.8a3,3,0,0,0-2.93,2.72L12.51,21a4.44,4.44,0,0,0-3.36,2.11L4.63,30.67A4.47,4.47,0,0,0,4,33V44.07A12,12,0,0,0,12,65H65a12,12,0,0,0,11.32-8H91.05a3.41,3.41,0,0,0,2,2.55L107.56,66a2.22,2.22,0,0,0,.87.18,2.17,2.17,0,0,0,1.35-.47A2.13,2.13,0,0,0,110.54,63.62ZM15.86,2.87A1,1,0,0,1,16.8,2H42.25a.94.94,0,0,1,.94.84l.15,1.42H15.76Zm-.25,3.39H43.55L45,20,42.23,34.67a.4.4,0,0,1-.4.33H29.4a.4.4,0,0,1-.4-.4V23.4A2.41,2.41,0,0,0,26.6,21H14.51ZM6,33a2.5,2.5,0,0,1,.34-1.25l4.52-7.53A2.44,2.44,0,0,1,12.93,23H26.6a.4.4,0,0,1,.4.4V34.6A2.41,2.41,0,0,0,29.4,37H41.83a2.41,2.41,0,0,0,2.37-2l2.62-14,33.74,2.67A2.66,2.66,0,0,1,83,26.38V49H76.32A12,12,0,0,0,65,41H12a11.87,11.87,0,0,0-6,1.62ZM65,63H12a10,10,0,0,1,0-20H65a10,10,0,0,1,9.16,6H71.93A8,8,0,0,0,65,45H12a8,8,0,0,0,0,16H65a8,8,0,0,0,6.93-4h2.23A10,10,0,0,1,65,63ZM33.71,57H58.09a8,8,0,0,0,3,3H15.87a8,8,0,0,0,0-14H61.13a8,8,0,0,0-3,3H34a4,4,0,0,0-.29,8Zm26.83,0h8.92a6,6,0,0,1-8.92,0ZM12,59a6,6,0,1,1,6-6A6,6,0,0,1,12,59ZM65,47a6,6,0,0,1,4.46,2H60.54A6,6,0,0,1,65,47Zm28,8H33.79a1.94,1.94,0,0,1-1.3-.68A2,2,0,0,1,34,51H93a2,2,0,0,1,0,4Zm15.53,9.16a.14.14,0,0,1-.16,0L93.83,57.72a1.35,1.35,0,0,1-.7-.73A4,4,0,0,0,93,49V38.86a3.47,3.47,0,0,1,1-2.47l4.4-4.4a1.11,1.11,0,0,1,.78-.32,1,1,0,0,1,.65.22l.82.61a1.09,1.09,0,0,1,.43.74,1.05,1.05,0,0,1-.23.82L99,36.35a3.82,3.82,0,0,0-.78,3.12l2.59,13.85a3.84,3.84,0,0,0,1.07,2l5.81,5.81a1.68,1.68,0,0,1,.45.84l.4,2A.13.13,0,0,1,108.53,64.16Z"/><path d="M32.14,32H40a1.14,1.14,0,0,0,1.12-.95L43,20.23a1.83,1.83,0,0,0,0-.47L42.09,9A1.13,1.13,0,0,0,41,8H32.14A1.14,1.14,0,0,0,31,9.14V30.86A1.14,1.14,0,0,0,32.14,32ZM32,9.14A.14.14,0,0,1,32.14,9H41a.13.13,0,0,1,.13.12L42,19.85a.55.55,0,0,1,0,.22l-1.8,10.82A.14.14,0,0,1,40,31h-7.9a.14.14,0,0,1-.14-.14Z"/></g></g></g></g></svg>